# xmcd
#
# Track frame offsets: 
#        150
#        23654
#        45887
#        61759
#        76503
#        92747
#        112673
#        129816
#        145851
#        167189
#        188008
#        206457
#        234024
#        263653
#        284160
#
# Disc length: 4056 seconds
#
# Revision: 0
# Processed by: cddbd v1.4PL0 Copyright (c) Steve Scherf et al.
# Submitted via: ExactAudioCopy v0.95a3
#
DISCID=ae0fd60f
DTITLE=伍佰 - 踏出一步
DYEAR=1900
DGENRE=
TTITLE0=踏出一步
TTITLE1=因为没有你
TTITLE2=是一种青春
TTITLE3=如果爱能爱很久
TTITLE4=夏夜的梦
TTITLE5=梦的河流
TTITLE6=断了
TTITLE7=一点点
TTITLE8=翅膀
TTITLE9=你爱我
TTITLE10=美丽新世界
TTITLE11=白鸽
TTITLE12=挪威的森林
TTITLE13=痛哭的人
TTITLE14=浪人情歌
EXTD=
EXTT0=
EXTT1=
EXTT2=
EXTT3=
EXTT4=
EXTT5=
EXTT6=
EXTT7=
EXTT8=
EXTT9=
EXTT10=
EXTT11=
EXTT12=
EXTT13=
EXTT14=
PLAYORDER=
